<?xml version="1.0" encoding="iso-8859-1"?>
<svg version="1.1" id="Layer_1" xmlns="http://www.w3.org/2000/svg" xmlns:xlink="http://www.w3.org/1999/xlink" 
	 viewBox="0 0 512 512" xml:space="preserve">
<circle style="fill:#88C5CC;" cx="256" cy="256" r="256"/>
<path style="fill:#263740;" d="M144,224h-36H72c-8.668,0-12,4.012-12,12.68V292c0,5.788,0,12,12,12v64h36h36v-64
	c12,0,12-6.212,12-12v-55.32C156,228.012,152.668,224,144,224z"/>
<path style="fill:#1E2C33;" d="M144,224h-8c8.668,0,12,4.012,12,12.68V292c0,5.788,0,12-12,12v64h8v-64c12,0,12-6.212,12-12v-55.32
	C156,228.012,152.668,224,144,224z"/>
<g>
	<path style="fill:#242424;" d="M128,248H88c-2.212,0-4-1.792-4-4s1.788-4,4-4h40c2.212,0,4,1.792,4,4S130.212,248,128,248z"/>
	<path style="fill:#242424;" d="M128,264H88c-2.212,0-4-1.792-4-4s1.788-4,4-4h40c2.212,0,4,1.792,4,4S130.212,264,128,264z"/>
	<path style="fill:#242424;" d="M128,280H88c-2.212,0-4-1.792-4-4s1.788-4,4-4h40c2.212,0,4,1.792,4,4S130.212,280,128,280z"/>
	<path style="fill:#242424;" d="M140,224v-12c0-2.2-1.8-4-4-4h-8c-2.2,0-4,1.8-4,4v12H140z"/>
</g>
<path style="fill:#263740;" d="M84,216c-2.212,0-4-1.792-4-4v-84c0-2.208,1.788-4,4-4s4,1.792,4,4v84C88,214.208,86.212,216,84,216z
	"/>
<path style="fill:#242424;" d="M92,224v-12c0-2.2-1.8-4-4-4h-8c-2.2,0-4,1.8-4,4v12H92z"/>
<rect x="80" y="204" style="fill:#1E2C33;" width="8" height="4"/>
<path style="fill:#96E652;" d="M104,224v4c0,2.2,1.8,4,4,4s4-1.8,4-4v-4H104z"/>
<path style="fill:#263740;" d="M456,224h-36h-36c-8.668,0-12,4.012-12,12.68V292c0,5.788,0,12,12,12v64h36h36v-64
	c12,0,12-6.212,12-12v-55.32C468,228.012,464.668,224,456,224z"/>
<path style="fill:#1E2C33;" d="M456,224h-8c8.668,0,12,4.012,12,12.68V292c0,5.788,0,12-12,12v64h8v-64c12,0,12-6.212,12-12v-55.32
	C468,228.012,464.668,224,456,224z"/>
<g>
	<path style="fill:#242424;" d="M440,248h-40c-2.212,0-4-1.792-4-4s1.788-4,4-4h40c2.212,0,4,1.792,4,4S442.212,248,440,248z"/>
	<path style="fill:#242424;" d="M440,264h-40c-2.212,0-4-1.792-4-4s1.788-4,4-4h40c2.212,0,4,1.792,4,4S442.212,264,440,264z"/>
	<path style="fill:#242424;" d="M440,280h-40c-2.212,0-4-1.792-4-4s1.788-4,4-4h40c2.212,0,4,1.792,4,4S442.212,280,440,280z"/>
	<path style="fill:#242424;" d="M452,224v-12c0-2.2-1.8-4-4-4h-8c-2.2,0-4,1.8-4,4v12H452z"/>
</g>
<path style="fill:#263740;" d="M396,216c-2.212,0-4-1.792-4-4v-84c0-2.208,1.788-4,4-4s4,1.792,4,4v84
	C400,214.208,398.212,216,396,216z"/>
<path style="fill:#242424;" d="M404,224v-12c0-2.2-1.8-4-4-4h-8c-2.2,0-4,1.8-4,4v12H404z"/>
<rect x="392" y="204" style="fill:#1E2C33;" width="8" height="4"/>
<path style="fill:#CC584C;" d="M416,224v4c0,2.2,1.8,4,4,4s4-1.8,4-4v-4H416z"/>
<g>
	<path style="fill:#E6E6E6;" d="M96.968,111.028c0,1.024,0.392,2.048,1.172,2.828c3.78,3.776,5.86,8.8,5.86,14.144
		c0,5.344-2.08,10.364-5.86,14.144c-1.564,1.564-1.564,4.092,0,5.656c1.564,1.564,4.092,1.564,5.656,0
		c5.288-5.288,8.204-12.32,8.204-19.8s-2.916-14.508-8.204-19.8c-1.564-1.564-4.092-1.564-5.656,0
		C97.36,108.984,96.968,110.004,96.968,111.028z"/>
	<path style="fill:#E6E6E6;" d="M108.28,99.716c0,1.024,0.396,2.048,1.176,2.828c14.036,14.036,14.028,36.872,0,50.916
		c-1.568,1.564-1.568,4.088,0,5.656c1.564,1.564,4.088,1.564,5.652,0c17.156-17.156,17.156-45.072,0-62.224
		c-1.564-1.564-4.088-1.564-5.652,0C108.676,97.668,108.28,98.692,108.28,99.716z"/>
	<path style="fill:#E6E6E6;" d="M119.592,88.404c0,1.024,0.396,2.048,1.172,2.828C130.584,101.052,136,114.112,136,128
		s-5.416,26.948-15.236,36.768c-1.564,1.564-1.564,4.092,0,5.656c1.568,1.564,4.092,1.564,5.656,0
		C137.756,159.092,144,144.024,144,128s-6.244-31.096-17.58-42.424c-1.564-1.564-4.088-1.564-5.656,0
		C119.988,86.356,119.592,87.38,119.592,88.404z"/>
</g>
<g>
	<path style="fill:#F5F5F5;" d="M364,243.028c0,1.024-0.392,2.048-1.172,2.828c-3.78,3.776-5.86,8.8-5.86,14.144
		s2.08,10.364,5.86,14.144c1.564,1.564,1.564,4.088,0,5.656c-1.564,1.564-4.092,1.564-5.656,0c-5.288-5.288-8.204-12.32-8.204-19.8
		s2.916-14.508,8.204-19.8c1.564-1.564,4.092-1.564,5.656,0C363.608,240.984,364,242.004,364,243.028z"/>
	<path style="fill:#F5F5F5;" d="M352.684,231.716c0,1.024-0.392,2.048-1.172,2.828c-14.036,14.036-14.028,36.872,0,50.916
		c1.568,1.564,1.568,4.084,0,5.648c-1.568,1.572-4.088,1.572-5.656,0c-17.152-17.148-17.152-45.072,0-62.216
		c1.568-1.564,4.088-1.564,5.656,0C352.292,229.668,352.684,230.692,352.684,231.716z"/>
	<path style="fill:#F5F5F5;" d="M341.372,220.404c0,1.024-0.392,2.048-1.172,2.828c-9.816,9.82-15.232,22.88-15.232,36.768
		c0,13.892,5.416,26.944,15.232,36.764c1.568,1.568,1.568,4.088,0,5.656c-1.564,1.568-4.088,1.568-5.652,0
		c-11.336-11.328-17.58-26.404-17.58-42.42s6.244-31.096,17.58-42.424c1.564-1.564,4.088-1.564,5.652,0
		C340.98,218.356,341.372,219.38,341.372,220.404z"/>
</g>
<path style="fill:#99602E;" d="M25.764,368C67.312,453.252,154.78,512,256,512s188.688-58.752,230.236-144H25.764z"/>
<path style="fill:#242424;" d="M482.156,376c1.408-2.64,2.764-5.308,4.08-8H25.764c1.312,2.692,2.672,5.36,4.08,8H482.156z"/>
</svg>